<svg xmlns="http://www.w3.org/2000/svg" width="48" height="48" viewBox="0 0 48 48"><title>cake-slice</title><g><path fill="#d1a06f" d="M45.88 40.9h-43.89a1 1 0 0 1-0.99-1v-19.95c0-3.11 1.36-6.22 3.73-8.51 3.01-2.92 7.59-4.46 13.22-4.46 0.14 0 0.27 0.03 0.39 0.09l27.93 11.96a1 1 0 0 1 0.61 0.92v19.95a1 1 0 0 1-1 1z"></path><path fill="#DDBE99" d="M1 29.92h45.88v2h-45.88z"></path><path fill="#f0ada2" d="M46.28 19.04l-27.93-11.97a0.99 0.99 0 0 0-0.39-0.09c-5.63 0-10.21 1.54-13.23 4.46-2.37 2.29-3.74 5.39-3.73 8.51a1 1 0 0 0 1 1h6.98a2 2 0 0 1 1.99 1.99v6.99a2.99 2.99 0 1 0 5.99 0v-6.99a2 2 0 0 1 1.99-1.99h26.94a1 1 0 0 0 0.39-1.91z"></path></g></svg>